<svg version="1.1" viewBox="0.0 0.0 192.0 192.0" fill="none" stroke="none" stroke-linecap="square" stroke-miterlimit="10" xmlns:xlink="http://www.w3.org/1999/xlink" xmlns="http://www.w3.org/2000/svg"><clipPath id="p.0"><path d="m0 0l192.0 0l0 192.0l-192.0 0l0 -192.0z" clip-rule="nonzero"/></clipPath><g clip-path="url(#p.0)"><path fill="#000000" fill-opacity="0.0" d="m0 0l192.0 0l0 192.0l-192.0 0z" fill-rule="evenodd"/><defs><linearGradient id="p.1" gradientUnits="userSpaceOnUse" gradientTransform="matrix(13.856431540601127 0.0 0.0 13.856431540601127 0.0 0.0)" spreadMethod="pad" x1="1.8157857949034403E-10" y1="-5.0159964036397625E-5" x2="-5.0159964036397625E-5" y2="13.856381380546305"><stop offset="0.0" stop-color="#0f62fe"/><stop offset="1.0" stop-color="#002d9c"/></linearGradient></defs><path fill="url(#p.1)" d="m0 32.00064l0 0c0 -17.673466 14.327174 -32.00064 32.00064 -32.00064l127.99872 0l0 0c8.487091 0 16.626587 3.3714864 22.627869 9.37277c6.0012817 6.0012846 9.372772 14.140772 9.372772 22.62787l0 127.99872c0 17.673462 -14.327179 32.00064 -32.00064 32.00064l-127.99872 0c-17.673466 0 -32.00064 -14.327179 -32.00064 -32.00064z" fill-rule="evenodd"/><path fill="#000000" fill-opacity="0.0" d="m-0.005249344 0l192.0 0l0 192.0l-192.0 0z" fill-rule="evenodd"/><path fill="#c9daf8" d="m47.70645 157.44l0 -119.453125l51.703125 0q16.046875 0 27.640625 5.203125q11.609375 5.203125 17.921875 14.9375q6.3125 9.71875 6.3125 23.203125q0 13.3125 -6.3125 23.046875q-6.3125 9.71875 -17.921875 14.921875q-11.59375 5.203125 -27.640625 5.203125l-36.34375 0l12.28125 -12.453125l0 45.390625l-27.640625 0zm27.640625 -42.328125l-12.28125 -13.140625l34.8125 0q12.796875 0 19.109375 -5.453125q6.3125 -5.46875 6.3125 -15.1875q0 -9.90625 -6.3125 -15.359375q-6.3125 -5.46875 -19.109375 -5.46875l-34.8125 0l12.28125 -13.140625l0 67.75z" fill-rule="nonzero"/></g></svg>